<svg xmlns="http://www.w3.org/2000/svg" viewBox="0 0 256.02 50.69"><defs><style>.cls-1{fill:#fff;}.cls-2{fill:#ff8100;}</style></defs><title>logo1</title><g id="Capa_2" data-name="Capa 2"><g id="texto"><path class="cls-1" d="M49.36,29.16A36,36,0,0,1,53.21,13.3c2.75.61,5,1.2,6.6,1.63L55.75,16.6l10.16.7-7-6.76.94,4c-2.08-.94-4.12-1.73-6.09-2.39A38.78,38.78,0,0,1,63.88,0H62.14a38.74,38.74,0,0,0-9.82,11.68A58.25,58.25,0,0,0,40.65,9.34,35.46,35.46,0,0,1,51.21,0H49.08A35.43,35.43,0,0,0,38.65,9.19a50.41,50.41,0,0,0-11.76.67A33.81,33.81,0,0,1,40.54,0h-3A34,34,0,0,0,23.26,10.67a23.49,23.49,0,0,0-2.75.91c.78-.17,1.57-.31,2.38-.43a30,30,0,0,0-6.55,18,31.42,31.42,0,0,0,8.11,21.53h3A31.42,31.42,0,0,1,19.3,29.16c0-.54,0-1.09.06-1.63l4.53,4.8-.75-4a61.45,61.45,0,0,0,8.53,5.07A34,34,0,0,0,38.5,50.69h2.1a33.74,33.74,0,0,1-6.68-16.24,63.93,63.93,0,0,0,14.79,4.47,37.3,37.3,0,0,0,4.86,11.77h1.74a37.19,37.19,0,0,1-4.8-11.48,55.25,55.25,0,0,0,14.56.38,99.18,99.18,0,0,1-14.93-2.16A43.89,43.89,0,0,1,49.36,29.16Zm-26-1.31,4-1.46-7.81-.85a31.39,31.39,0,0,1,6.57-14.77,70.63,70.63,0,0,1,11.3.08,32.79,32.79,0,0,0-6,18.3c0,.81,0,1.62.08,2.41C28.1,30.17,25.33,28.84,23.39,27.85Zm10.3,4.58c-.09-1.08-.14-2.17-.14-3.28A32.7,32.7,0,0,1,39.42,11,120.53,120.53,0,0,1,51.64,13a36.14,36.14,0,0,0-4,16.19,44,44,0,0,0,.7,7.84A115.28,115.28,0,0,1,33.69,32.43Z"/><circle class="cls-2" cx="44.79" cy="23.26" r="1.57"/><circle class="cls-2" cx="29.06" cy="43.19" r="1.57"/><g id="old"><path class="cls-1" d="M93.44,12.55a9.93,9.93,0,0,0-3.58-1.71,17.86,17.86,0,0,0-8.51,0,12.08,12.08,0,0,0-3.78,1.63,8.92,8.92,0,0,0-2.76,2.9,8.37,8.37,0,0,0-1.07,4.34,7.63,7.63,0,0,0,.67,3.34,7.16,7.16,0,0,0,1.76,2.32,9.57,9.57,0,0,0,2.43,1.52,22.62,22.62,0,0,0,2.71,1q1.33.4,2.65.77a14.36,14.36,0,0,1,2.26.82,5.18,5.18,0,0,1,1.53,1,1.9,1.9,0,0,1,.51,1.39,2.86,2.86,0,0,1-.43,1.6,3.66,3.66,0,0,1-1.14,1.11,5.76,5.76,0,0,1-1.62.67,9.34,9.34,0,0,1-4.25,0A5,5,0,0,1,79,34.47,3.37,3.37,0,0,1,77.83,33a5.27,5.27,0,0,1-.33-2.35l0-.48H70.59v.46c0,3.64,1.05,6.36,3.12,8.08s5.17,2.56,9.28,2.56a18.29,18.29,0,0,0,4.25-.51,11.93,11.93,0,0,0,3.91-1.7A9.47,9.47,0,0,0,94,36a9,9,0,0,0,1.13-4.62,8.84,8.84,0,0,0-.6-3.44,6.79,6.79,0,0,0-1.7-2.41,8.88,8.88,0,0,0-2.57-1.59,24.82,24.82,0,0,0-3.17-1l-1.89-.42a13.13,13.13,0,0,1-2.2-.7,6.2,6.2,0,0,1-1.76-1.08,1.8,1.8,0,0,1-.63-1.41A2.61,2.61,0,0,1,81,17.83a2.94,2.94,0,0,1,1-1,4.81,4.81,0,0,1,1.49-.55,8.8,8.8,0,0,1,3.65,0,4,4,0,0,1,1.5.67,3,3,0,0,1,.94,1.17A4,4,0,0,1,89.9,20l0,.48h6.93V20a10,10,0,0,0-.91-4.45A8.57,8.57,0,0,0,93.44,12.55Z"/><polygon class="cls-1" points="97.08 40.65 104.33 40.65 110.6 11.01 103.3 11.01 97.08 40.65"/><polygon class="cls-1" points="138.35 11.01 113.44 11.01 112.12 17.24 121.13 17.24 116.22 40.65 123.52 40.65 128.43 17.24 137.03 17.24 138.35 11.01"/><path class="cls-1" d="M160.81,38.64c-.05-.55-.08-1.15-.08-1.79,0-.87,0-1.76.1-2.64s.1-1.7.1-2.35a8.24,8.24,0,0,0-.64-3.3,3.65,3.65,0,0,0-1.47-1.67,7.66,7.66,0,0,0,1.55-.66,8.36,8.36,0,0,0,2.21-1.81,8,8,0,0,0,1.45-2.5,8.54,8.54,0,0,0,.51-2.93,9.72,9.72,0,0,0-.64-3.72A6.32,6.32,0,0,0,162,12.74a7.31,7.31,0,0,0-2.9-1.38,14.43,14.43,0,0,0-3.63-.35H141.43l-6.19,29.64h7.21l2.37-11.22h5.58a9,9,0,0,1,1.61.13,2.69,2.69,0,0,1,1.12.46,2.2,2.2,0,0,1,.7.89,3.72,3.72,0,0,1,.26,1.52,26.34,26.34,0,0,1-.16,2.87,27.49,27.49,0,0,0-.16,3,6,6,0,0,0,.09,1q.08.47.21,1l.08.36h7.18L161.1,40A5.4,5.4,0,0,1,160.81,38.64Zm-3.49-18.72a3.38,3.38,0,0,1-.47,1.83A3.84,3.84,0,0,1,155.55,23a6.54,6.54,0,0,1-1.94.75,10.78,10.78,0,0,1-2.35.25H146l1.5-7.17h5.62a12.12,12.12,0,0,1,1.7.12,3.79,3.79,0,0,1,1.33.43,2.16,2.16,0,0,1,.85.88A3.51,3.51,0,0,1,157.32,19.92Z"/><path class="cls-1" d="M181.89,11,164.41,40.65h7.71l3.62-6.4h10.08l.92,6.4H194L189,11Zm3.24,17.62h-6.39l5.21-9.6Z"/><path class="cls-1" d="M220,13.15A10.87,10.87,0,0,0,216.16,11a15.6,15.6,0,0,0-4.77-.71,15.17,15.17,0,0,0-11.84,5.37,17.63,17.63,0,0,0-3.2,5.68,20.69,20.69,0,0,0-1.11,6.79c0,4.21,1.16,7.49,3.46,9.74s5.57,3.39,9.76,3.39a15.86,15.86,0,0,0,4.45-.6,10.86,10.86,0,0,0,3.78-2,13.91,13.91,0,0,0,3-3.51A23.24,23.24,0,0,0,222.05,30l.19-.6h-7.33l-.07.38a6.24,6.24,0,0,1-.75,2,6.89,6.89,0,0,1-1.39,1.72,6.58,6.58,0,0,1-1.9,1.17,6,6,0,0,1-2.26.43,6.22,6.22,0,0,1-2.75-.56,5.16,5.16,0,0,1-1.85-1.49,6.66,6.66,0,0,1-1.09-2.2,9.7,9.7,0,0,1-.36-2.69,16.13,16.13,0,0,1,.55-4.09,12.71,12.71,0,0,1,1.65-3.77,8.92,8.92,0,0,1,2.79-2.72,7.41,7.41,0,0,1,4-1,4.72,4.72,0,0,1,3.4,1.22,4.83,4.83,0,0,1,1.28,3.67v.46h7.23v-.45a11.77,11.77,0,0,0-.84-4.79A9.53,9.53,0,0,0,220,13.15Z"/><polygon class="cls-1" points="256.02 11.01 246.23 11.01 234.02 22.28 236.36 11.01 229.1 11.01 222.96 40.65 230.22 40.65 232.15 31.34 235.97 28.01 242.39 40.65 250.55 40.65 241.56 23.41 256.02 11.01"/></g><path class="cls-2" d="M0,0H9A9.07,9.07,0,0,1,0,9H0Z"/></g></g></svg>